<svg width="34" height="34" viewBox="0 0 34 34" fill="none" xmlns="http://www.w3.org/2000/svg">
<circle cx="17" cy="17" r="17" fill="#FFF500"/>
<path d="M29 17C29 23.6274 23.6274 29 17 29C10.3726 29 5 23.6274 5 17C5 10.3726 10.3726 5 17 5C23.6274 5 29 10.3726 29 17ZM6.3003 17C6.3003 22.9093 11.0907 27.6997 17 27.6997C22.9093 27.6997 27.6997 22.9093 27.6997 17C27.6997 11.0907 22.9093 6.3003 17 6.3003C11.0907 6.3003 6.3003 11.0907 6.3003 17Z" fill="#212121"/>
<path d="M8.60181 16.9886L24.9474 16.9886" stroke="#212121" stroke-width="1.5" stroke-linejoin="round"/>
<path d="M16.7442 7.99219V10.4623M16.7442 25.9541V13.2069V10.4623M16.7442 10.4623C10.9958 10.4623 9.96405 15.3213 9.89797 16.9426C9.8319 18.564 10.7061 22.3099 13.4964 23.3619" stroke="#212121" stroke-width="1.5" stroke-linejoin="round"/>
<path d="M21.9817 10.4626C22.6983 10.4626 23.415 11.1335 23.415 13.314C23.415 13.9696 23.415 19.6418 23.415 20.4042C23.415 22.7371 22.8051 23.3318 21.9817 23.3318" stroke="#212121" stroke-width="1.5"/>
</svg>
